<svg xmlns="http://www.w3.org/2000/svg" viewBox="0 0 1920 1080"><defs><style>.cls-1{opacity:0.7;}.cls-2{fill:#207b50;}.cls-3{fill:none;stroke:#207b50;stroke-width:0;}.cls-4{fill:#202a44;}</style></defs><g id="Layer_2" data-name="Layer 2"><g class="cls-1"><path class="cls-2" d="M514.78,340.25c9-19,18.47-38.19,28.44-55.73,10.54-18.73,22.9-34.29,35.79-49,13.1-14.58,26.72-28.29,40.83-43.66C637.65,172.66,658.18,156.4,680,142s45-27.15,69.13-39.67a492.79,492.79,0,0,1,69.42-29.57c12-4,24.24-7.77,36.65-10.8s24.95-5.7,37.61-7.77c50.62-8.32,103.1-7.71,153.15,2.47a502.4,502.4,0,0,1,132.56,46.89,490.32,490.32,0,0,1,110.77,78.95,467.12,467.12,0,0,1,83.09,105.18,454.43,454.43,0,0,1,49.44,125c3,12.83,5.54,26,7.6,39.32s3.54,27,4.53,40.71A504.51,504.51,0,0,1,1418,659a522.59,522.59,0,0,1-27.75,78c-4.11,9.06-9,19.13-14.84,29.81s-12.58,21.87-20.12,33.26a491.28,491.28,0,0,1-53.74,67.39,541.14,541.14,0,0,1-62.68,56.07c-2.59,1.94-5.09,3.94-7.64,5.78l-7.47,5.48c-5,3.48-9.68,6.93-14.3,10-9.14,6.36-17.6,11.75-24.76,16.59a542.5,542.5,0,0,0,112-83.69,510,510,0,0,0,85.51-109.65A480.65,480.65,0,0,1,1167,975.52q-17.22,8.31-35,15.37T1096,1003.46l-9.15,2.71c-1.52.48-3.06.86-4.6,1.26l-4.62,1.19-9.23,2.41c-1.54.38-3.06.85-4.62,1.16l-4.66,1-9.3,2-4.66,1c-1.55.33-3.12.55-4.68.84l-9.37,1.62-4.68.81-2.34.41-2.35.31a487.81,487.81,0,0,1-75.47,5.33,509.49,509.49,0,0,1-74.8-6c5.77.9,11.51,1.93,17.32,2.5l8.69,1,4.34.51c1.45.18,2.91.24,4.36.37,5.82.43,11.62.94,17.43,1.31l17.47.65a514.55,514.55,0,0,0,69.67-3.51l8.65-1.09,4.32-.54c1.44-.21,2.87-.48,4.3-.71l17.19-2.91,17-3.6c2.86-.54,5.65-1.33,8.47-2l8.44-2.15c11.27-2.78,22.36-6.26,33.36-9.91l8.22-2.82,8.15-3c1.36-.51,2.73-1,4.08-1.52l4-1.61c2.68-1.09,5.39-2.11,8.06-3.24a497.83,497.83,0,0,0,119-70.17,504.36,504.36,0,0,0,95-99.57,510.38,510.38,0,0,0,64.51-120.84l2.93-8,2.75-8.11c.45-1.35.93-2.7,1.36-4.06l1.28-4.08c.83-2.73,1.74-5.43,2.52-8.18,3.25-10.93,6.06-22,8.62-33.07s4.62-22.3,6.36-33.54c.47-2.81.8-5.63,1.21-8.44s.81-5.63,1.11-8.45l1-8.47.78-8.48a515.54,515.54,0,0,0-6.09-135.32,530.68,530.68,0,0,0-16-65.63c-.79-2.7-1.73-5.34-2.59-8s-1.73-5.35-2.69-8c-1.9-5.28-3.73-10.59-5.8-15.8-4-10.51-8.42-20.8-13-31a504.9,504.9,0,0,1-276.1,702.22,515.56,515.56,0,0,1-249.65,26.91,527.37,527.37,0,0,1-79.67-17.55,541.9,541.9,0,0,1-142-66.87c-1.61-1.07-3.3-2.06-4.88-3.2l-4.84-3.38-9.83-6.82c-3.26-2.32-6.42-4.78-9.64-7.16l-4.81-3.57c-1.6-1.2-3.22-2.35-4.73-3.62L612,909.64l-4.5-3.57c-1.5-1.17-2.88-2.44-4.31-3.63l-8.29-7.05-4-3.36-3.73-3.37A560.55,560.55,0,0,0,716,978.53a535.86,535.86,0,0,0,155.34,50.67,517.73,517.73,0,0,0,168.21-.23c7.06-1,14-2.57,21-3.94s13.93-3.15,20.9-4.81,13.85-3.61,20.75-5.59l10.29-3.14,10.23-3.4q20.38-7,40.23-15.65t38.89-19a509,509,0,0,0,188-176.88q11.54-18.39,21.48-37.66t18.1-39.25a506,506,0,0,0,37.48-165.91c.73-14,.95-28.05.5-42s-1.44-27.78-3-41.51-3.7-27.3-6.28-40.71-5.78-26.62-9.38-39.62a506.84,506.84,0,0,0-438-368.23c-14-1.54-28-2.58-42.08-2.95s-28.2-.15-42.29.62-28.16,2.22-42.15,4.14L879,24.2l-2.62.37-2.61.44L863.3,26.78c-6.92,1.35-13.86,2.65-20.73,4.25a520.18,520.18,0,0,0-83,26A508.39,508.39,0,0,0,552.89,212.63c-4,5.05-7.95,10.48-12.17,16.05s-8.16,11.68-12.43,17.78l-6.1,9.55c-1,1.61-2.06,3.23-3.1,4.86l-1.55,2.45c-.5.83-1,1.67-1.48,2.51l-6,10.2c-1,1.72-2,3.43-3,5.17s-1.88,3.54-2.83,5.31q-2.82,5.34-5.68,10.72c-1.85,3.61-3.55,7.32-5.34,11l-2.64,5.54-1.32,2.77-1.22,2.82-4.84,11.3c-.79,1.89-1.66,3.74-2.36,5.66s-1.46,3.82-2.18,5.73l-4.31,11.41q-1.92,5.76-3.82,11.47c-1.23,3.81-2.56,7.56-3.58,11.38-9,30.31-13.95,59.57-15.53,83.51a251,251,0,0,0-.3,31.48c.73,8.86,1.86,15.91,3.35,20.73q.54-6,1-12.07c.31-4.06.55-8.17,1.05-12.28s.85-8.25,1.28-12.4c.11-1,.19-2.07.32-3.11l.44-3.09q.42-3.1.86-6.19a343.83,343.83,0,0,1,9.72-47.5c-.69,5.78-1.44,12-2.21,18.48-.59,6.49-1.25,13.21-2.1,20,1.21-6.37,2.62-13.07,3.95-19.67,1.57-6.54,3-13,4-19-.8,5-1.53,10-2,14.28-.23,2.14-.42,4.09-.47,5.77a24.33,24.33,0,0,0,.24,4.1c.77-3.8,1.76-8,2.61-12.32.43-2.18.85-4.4,1.25-6.63s.76-4.48,1.25-6.68c1.84-8.79,3.27-17.32,4.84-23.26.41-1.76,1.15-5.11,2.08-9.3.23-1,.48-2.14.73-3.28s.61-2.29.92-3.49l2-7.4,2.08-7.51c.76-2.43,1.55-4.76,2.29-6.93a103.93,103.93,0,0,1,3.89-10.1c-.85,3-1.73,6.07-2.62,9.22-.46,1.57-.91,3.15-1.37,4.75s-1,3.19-1.34,4.83l-2.45,9.84q-.62,2.46-1.22,4.92l-.61,2.45-.51,2.46c-.66,3.28-1.31,6.52-1.95,9.69-.31,1.59-.62,3.15-.92,4.7-.14.77-.29,1.54-.44,2.3s-.22,1.53-.34,2.29c-.88,6.06-1.62,11.7-2.12,16.68,1.18-4,2.27-8.05,3.38-12.05q.86-3,1.69-6t2-5.81c-1,5-2.46,12.28-3.81,19-.32,1.67-.63,3.31-.93,4.86s-.44,3.06-.62,4.41a33.76,33.76,0,0,0-.32,6.27q.84-3.79,1.66-7.48l.4-1.85.46-1.82c.31-1.21.61-2.42.92-3.62,1.23-4.81,2.34-9.59,3.63-14.35s2.8-9.49,4.24-14.35c.69-2.44,1.56-4.85,2.43-7.3l2.68-7.45,2.24-6.06q1.21-3,2.42-5.85c1.58-3.87,3.14-7.68,4.68-11.47s3.32-7.46,4.92-11.23l2.38-5.68c.8-1.89,1.69-3.77,2.52-5.68-2,4.57-3.88,9.66-5.88,14.82l-3,7.78-2.65,7.84a181.67,181.67,0,0,0-7.25,26.93c1.83-4.2,3.49-8.58,5.05-13,.75-2.24,1.61-4.45,2.45-6.67s1.65-4.43,2.47-6.64a4.11,4.11,0,0,0,0,2.21c1.56-3.87,3.87-8.87,5.64-12.82.42.06,1.18-.65,1.22.28a7.7,7.7,0,0,0-.71-.57"/><path class="cls-2" d="M477.18,356.82c.44-1.28.94-2.56,1.47-3.87s1.05-2.66,1.6-4c1.09-2.73,2.21-5.56,3.37-8.44.58-1.44,1.14-2.9,1.77-4.35s1.29-2.9,1.95-4.35c1.31-2.91,2.64-5.84,4-8.76.66-1.46,1.33-2.91,2-4.36s1.42-2.83,2.13-4.23l4.2-8.19c2.68-5.35,5.58-10.15,8.11-14.38"/><path class="cls-3" d="M1450.76,412.3s.26,1.07.75,3.16,1.29,5.18,2.12,9.28,2,9.12,3,15.11,2.27,12.9,3.47,20.68a510.49,510.49,0,0,1,5,56.88c.26,5.54.23,11.28.31,17.18,0,3-.07,6-.11,9,0,1.52-.05,3-.07,4.6s-.12,3.09-.18,4.66c-.15,3.12-.2,6.29-.42,9.5s-.41,6.46-.62,9.75c-.56,6.57-1.1,13.3-1.94,20.16a508.77,508.77,0,0,1-56.94,182.18,517.81,517.81,0,0,1-28.28,46.79,511.7,511.7,0,0,1-34.42,45c-6.2,7.32-12.76,14.42-19.43,21.48-3.43,3.46-6.79,7-10.3,10.4s-7,6.86-10.65,10.16a498.05,498.05,0,0,1-46,37.91,504.36,504.36,0,0,1-50.94,32.74,518.55,518.55,0,0,1-55.06,26.69,530.3,530.3,0,0,1-58.14,20c-4.94,1.38-9.94,2.55-14.9,3.84l-7.46,1.89c-2.5.57-5,1.06-7.52,1.6-5,1-10,2.13-15.05,3.12l-15.14,2.51a501.39,501.39,0,0,1-60.83,5.78l-7.59.31c-2.53,0-5.06,0-7.59,0-5.06,0-10.11,0-15.14-.06-10.07-.45-20.12-.67-30.07-1.67-10-.64-19.85-2-29.69-3.21-4.9-.7-9.77-1.57-14.64-2.34l-7.28-1.2-7.22-1.47c-4.79-1-9.6-1.9-14.35-3l-14.15-3.48c-4.73-1.07-9.33-2.53-14-3.83l-6.92-2-3.45-1-3.4-1.13-13.56-4.47c-2.26-.71-4.47-1.56-6.68-2.39l-6.61-2.47c-8.88-3.14-17.39-7-25.94-10.47C726,993,709.65,985.09,694.26,976.23L688.47,973c-1-.55-1.94-1.07-2.88-1.63l-2.81-1.72-11.17-6.82c-3.75-2.2-7.27-4.68-10.85-7s-7.14-4.7-10.63-7.09c-13.78-9.78-27-19.6-39.21-29.9a596.49,596.49,0,0,1-64-61.94c-18.22-20.42-33.37-40.13-46.28-57.74"/><path class="cls-3" d="M1321.63,872.62l-3.26,3.41-4,4.16-5.59,5.59c-8.48,8.39-21.12,20.39-38.08,34.24-8.54,6.86-18.12,14.21-28.8,21.73s-22.54,15.13-35.46,22.66a509.79,509.79,0,0,1-90.16,41.36c-4.24,1.53-8.58,2.88-12.94,4.29s-8.81,2.67-13.27,4c-2.23.69-4.49,1.27-6.76,1.85l-6.85,1.78-6.89,1.79c-1.16.29-2.3.63-3.47.88l-3.51.76-14.17,3.07c-2.37.56-4.78.93-7.18,1.35l-7.26,1.26-7.3,1.28c-1.22.23-2.44.4-3.68.55l-3.69.49-14.9,2a576.77,576.77,0,0,1-61.46,3.15,567.88,567.88,0,0,1-63.22-4.46A532.73,532.73,0,0,1,754.5,997.2c-10.17-3.84-20-8.36-29.94-12.76L710,977.36c-2.46-1.14-4.82-2.44-7.2-3.71l-7.15-3.8c-2.37-1.27-4.77-2.5-7.12-3.81l-7-4-7-4c-1.16-.67-2.33-1.33-3.47-2l-3.39-2.14-13.56-8.53q-6.6-4.51-13.15-9"/></g><path class="cls-4" d="M874,645.56c-9.09,49.14-17.38,98.24-25.25,147.63-3.7,23.28-7.42,46.58-12.46,69.61-1.38,6.33-2.91,12.73-6.09,18.38-2.7,4.79-8.4,11.62-14.34,11.49-.85-14.22,2.22-29.72,4-43.84Q827.6,788,836,727.27q4.2-30.37,8.51-60.73,1.65-11.67,3.33-23.36c1.12-7.83,2.66-15.74,2.14-23.69-.5-7.58-3.78-13.21-6.76-20a12.51,12.51,0,0,1-1.36-6.17c.3-3,2.39-5.45,4.73-7.3,3.8-3,7.77-5.3,10.8-9.2a39.06,39.06,0,0,0,6-11.77c2.82-8.57,3.56-17.61,5.39-26.41q3.15-15.2,6.43-30.37c4.38-20.19,9-40.34,14.1-60.48,9.66-38.15,20.86-76,34.82-112.79q5.42-14.3,11.41-28.38c2-4.68,4.26-9.24,6.5-13.81a27.21,27.21,0,0,1,5.87-8.55c3-2.67,7.45-4.12,11.14-2.52s5.64,5.73,5.83,9.7-1.11,7.86-2.36,11.63c-25.63,77.05-45,156.18-61.3,235.68q-2.72,13.28-5.3,26.57c-.72,3.7-1.19,8.17,1.66,10.64,1.92,1.68,4.72,1.78,7.27,1.75,20.29-.29,40.33-4.42,60-9.54,56.58-14.74,111.91-38.45,155.75-77.14s75.27-93.7,77.14-152.15c1-30.77-6.86-63.18-27.66-86.64-25.59-28.88-65.36-43.29-103.19-46.25-39.17-3.06-78.61,5.49-115.34,19.22A391.53,391.53,0,0,0,793.37,334.82c-26.63,30.62-49.12,65.73-61.19,104.59-11.33,36.48-16.86,85.21,4.25,119,4.09,6.56,10.76,11,15.11,17.34a14.92,14.92,0,0,1,3,7.86,8.26,8.26,0,0,1-3.24,7c-8.92,6.24-23.57-8.49-29-14.37-8.4-9.06-14.57-20.11-18.79-31.68-12.73-34.94-9.82-73.61.39-108.79,4.59-15.83,9.58-31.57,17.54-46a403.18,403.18,0,0,1,26.69-41.89A410.32,410.32,0,0,1,891.52,224.56c51.55-26.51,109.38-41.88,167.33-40.09,34.82,1.07,70.31,8.68,99.28,28.05,46.33,31,69.86,89.91,65.34,145.47s-34.3,107.11-74.87,145.34c-53.65,50.53-123.31,81.86-195.44,94.1-20.21,3.43-40.58,5.86-60.95,8.11-4.11.46-8.77,1.23-11,4.71a13.92,13.92,0,0,0-1.63,5.06Q876.79,630.44,874,645.56Z"/><path class="cls-4" d="M1084,790.15c-4.52,5.74-9.42,11.18-14.42,16.5a542.36,542.36,0,0,1-40.48,38.89c-15.06,13-31,25.34-48.82,34.21s-37.8,14.19-57.67,12.67c-8.5-.66-17.49-2.89-23.15-9.26-4.45-5-6.2-12-6-18.71s2.14-13.23,4.32-19.57a308.46,308.46,0,0,1,15.38-36.46c5.87-11.86,12.36-23.4,19.17-34.74s14-22.55,21.19-33.68c1.55-2.4,3-5.58,5.18-7.43s3.84-4.14,5.94-6a52.93,52.93,0,0,1,14.79-9.4,50.12,50.12,0,0,1,6.31-2.2c2.54-.7,5.5-1.14,7.6.46,3.5,2.67,1.69,8.19-.45,12-18.75,33.57-41.55,65.15-55.43,101-3.86,10-7,20.34-7.51,31-.22,4.8.27,10,3.49,13.6,3.6,4,9.55,4.74,14.91,4.46,16.77-.89,32.21-9.22,46.25-18.43C1026.71,838,1055,811.25,1079,781.27c1.34-1.66,2.74-3.4,4.69-4.27s4.62-.53,5.7,1.31c1.25,2.13-.18,4.79-1.62,6.79C1086.56,786.81,1085.29,788.5,1084,790.15Z"/><path class="cls-4" d="M1012,618.76c.57-10,6-20,14.63-25.36,7.17-4.42,18.6-5.66,23.28,3,2.06,3.78,2,8.33.91,12.39-3,11.31-9.69,20-21,24S1011.28,630.77,1012,618.76Z"/></g></svg>