<svg xmlns="http://www.w3.org/2000/svg" viewBox="0 0 1920 1080"><defs><style>.cls-1,.cls-2{fill:#202a44;}.cls-2{stroke:#202a44;stroke-linecap:round;stroke-miterlimit:10;stroke-width:25.76px;}</style></defs><g id="Layer_2" data-name="Layer 2"><path class="cls-1" d="M640.69,362.81H523.4c-.23,2.2-.49,4.28-.68,6.37q-2.61,29.93-5.2,59.83c-1.68,19.49-3.3,39-5,58.46q-2.62,30.33-5.33,60.65c-1.5,16.72-3,33.45-4.67,50.15-2.25,21.93-4.75,43.83-8,65.63-2.75,18.25-5.94,36.4-10.65,54.26-3.86,14.65-8.53,29-16,42.34a80.81,80.81,0,0,1-16.36,21.13c-9.34,8.41-20.37,13.11-32.67,15.15-16.24,2.7-31-1-44.35-10.36s-21.2-22.49-24.23-38.55c-2.09-11.1-.93-21.7,4.27-31.73a116,116,0,0,1,7.6-13.17c7.93-11.34,16.09-22.53,24.23-33.72a405.88,405.88,0,0,0,43.09-73.69,429.36,429.36,0,0,0,22.77-65.21,566.09,566.09,0,0,0,12.86-64c2.89-20.1,5-40.28,6.08-60.55.67-13.09,1.08-26.18,1.6-39.27,0-1,0-2,0-3.17-4.17-.4-8.09-.85-12-1.13a207.09,207.09,0,0,0-36.51.43c-15,1.61-29.41,5.13-42.85,12.19a87.61,87.61,0,0,0-32.12,28.64c-5.5,8.07-10.23,16.65-15.37,25-2.13,3.45-4.44,6.78-6.65,10.19a3.35,3.35,0,0,1-3.48,1.63c-5.67-.51-11.35-.87-17.24-1.3.3-.95.48-1.64.74-2.31q12.09-31.36,24.2-62.71c4.52-11.71,9.22-23.33,15.31-34.34,6.57-11.87,14.95-22.16,26.29-29.83,9.26-6.28,19.47-10.45,30.16-13.56a242.1,242.1,0,0,1,36.6-7.27c22.08-2.87,44.28-4.13,66.51-5,44.95-1.76,89.91-1.74,134.87-1.57q97.9.38,195.82,1h2.78c.24,27.15.48,54.05.73,81.37-14.26.06-28.34-.16-42.42-.25s-28.25-.16-42.38-.19-28.22,0-42.63,0c-.08.94-.21,1.91-.23,2.88-.26,8.86-.32,17.72-.78,26.57q-1.11,21-2.66,42c-.84,11.41-1.91,22.8-3,34.19-1.16,12.4-2.46,24.78-3.65,37.18-1,10.74-2.05,21.49-3,32.24s-1.87,21.51-2.53,32.28c-1.29,21.38-2,42.78-.16,64.17,1.19,13.55,3.29,26.92,8.28,39.67,3.69,9.41,8.81,17.86,16.61,24.48S739,710,749,711.38a66.43,66.43,0,0,0,36-4.71c11.92-5.17,20.55-13.83,26.39-25.35,5.33-10.54,7.8-21.82,8.71-33.51.08-1,.17-2,.25-2.93,2.19-.62,17.13-.71,20.13-.12,0,1.49.09,3,0,4.58-2,31.89-10.46,61.92-26.31,89.73-8,14-17.94,26.38-30.59,36.48a94.46,94.46,0,0,1-49.87,20.8c-15.46,1.63-30.8.89-45.85-3.26q-40.9-11.28-59.74-49.34c-6.29-12.69-9.69-26.23-11.39-40.26a176.94,176.94,0,0,1-.75-29c.49-11.24.81-22.5,1.43-33.74.73-13.08,1.63-26.15,2.59-39.22q1.34-18.21,2.95-36.41c1-10.84,2.05-21.67,3.09-32.51q1.49-15.55,3-31.12c1.21-12.4,2.46-24.79,3.64-37.18q1.56-16.26,3-32.52c1.08-12.41,2.14-24.82,3.08-37.24.75-9.93,1.32-19.88,2-29.83C640.72,364.16,640.69,363.61,640.69,362.81Z"/><line class="cls-2" x1="1320.69" y1="282.36" x2="805.42" y2="797.64"/><path class="cls-1" d="M110.19,540.11a33.9,33.9,0,0,1,3.33,2.47q94.88,94.84,189.74,189.71c4.71,4.72,8.16,10,9,16.74,1,8.05-1,15.22-6.52,21.09-6.53,7-13.25,13.77-20.22,20.28-10.75,10-26.31,9.55-36.88-.94-13.06-13-26-26-39-39L18.79,559.61C9.12,549.94,7.25,537,14.07,526.13a33.52,33.52,0,0,1,4.64-5.67Q133.32,405.79,248,291.14c11.69-11.68,27.41-11.7,39.19-.07,5.55,5.47,11.05,11,16.54,16.53,11.9,12,11.9,27.66,0,39.58q-94.95,95-189.92,189.9C112.93,538,111.92,538.66,110.19,540.11Z"/><path class="cls-1" d="M1809.81,539.89a33.9,33.9,0,0,1-3.33-2.47q-94.87-94.84-189.74-189.71c-4.71-4.72-8.16-10-9-16.74-1-8.05,1-15.22,6.52-21.09,6.53-7,13.25-13.77,20.22-20.28,10.75-10,26.31-9.55,36.88.94,13.06,12.95,26,26,39,39l190.84,190.84c9.67,9.67,11.54,22.62,4.72,33.48a33.52,33.52,0,0,1-4.64,5.67Q1786.68,674.22,1672,788.86c-11.69,11.68-27.41,11.7-39.19.07-5.55-5.47-11-11-16.54-16.53-11.9-12-11.9-27.66,0-39.58q94.95-95,189.92-189.9C1807.07,542.05,1808.08,541.34,1809.81,539.89Z"/><path class="cls-1" d="M1254.21,797.64c0-.52-.07-1-.07-1.44,0-5.59,0-11.17,0-16.76a3.29,3.29,0,0,1,.94-2.38Q1305.18,720.5,1355.29,664c12.36-13.89,25.1-27.45,37.64-41.18,19.37-21.21,38.63-42.5,57.39-64.26a340.25,340.25,0,0,0,33.31-45.25,240.88,240.88,0,0,0,26.81-60.61,186.93,186.93,0,0,0,5.76-28.29,138.85,138.85,0,0,0,.45-28.39,104.57,104.57,0,0,0-6.87-30.54c-10.44-25.71-29.17-42.13-55.92-49.43a111.6,111.6,0,0,0-26.39-3.69A168.72,168.72,0,0,0,1381.7,317a113.21,113.21,0,0,0-54.25,30.8,67.31,67.31,0,0,0-13.74,19.36,44.79,44.79,0,0,0-4.22,19.92,28.82,28.82,0,0,0,.68,5.47,15.35,15.35,0,0,0,7.55,10.24,42.52,42.52,0,0,0,9.45,4c3.48,1,7,1.88,10.51,2.88a58.2,58.2,0,0,1,13.78,5.82c10.86,6.47,17.06,16,18.75,28.49,1,7.25.83,14.45-1.51,21.41-5,15-15.44,24.34-30.78,27.95a45.64,45.64,0,0,1-28.53-2.14,53.37,53.37,0,0,1-18-12.81,71.76,71.76,0,0,1-18.28-34.8,113.22,113.22,0,0,1-2.29-30.62,126.12,126.12,0,0,1,5.28-30.9,122.22,122.22,0,0,1,38.06-58c14.75-12.64,31.44-22,49.44-29.18a176.72,176.72,0,0,1,41-10.7,196,196,0,0,1,39-1.38,177.79,177.79,0,0,1,55.73,12.37,164.57,164.57,0,0,1,43.55,25.29c22.21,18.23,36.41,41.45,43,69.36a124.88,124.88,0,0,1,2.83,37.67c-1.75,24.33-9.28,46.87-21.39,67.95a193.71,193.71,0,0,1-18.79,26.54A474.17,474.17,0,0,1,1500,573.28c-8.18,7.36-16.64,14.42-25.07,21.5q-44.43,37.34-88.89,74.59a418.69,418.69,0,0,0-38.15,35.77c-3.61,3.9-7,8-10.46,12.05a14,14,0,0,0-1,1.39c-1.54,2.34-1.34,4.49.77,6.35a13.24,13.24,0,0,0,3.54,2.33,78.1,78.1,0,0,0,8.61,3.08,125.26,125.26,0,0,0,18.93,3.54c7.74.9,15.49,1.75,23.26,2.41,7.35.61,14.72,1,22.09,1.37,11,.5,22.11.94,33.18,1.22,11.33.28,22.66.38,34,.51,7.27.08,14.55.13,21.82.11a73.68,73.68,0,0,0,19.71-2.43,40.87,40.87,0,0,0,13.47-6.4,32.34,32.34,0,0,0,9-10.3,117.32,117.32,0,0,0,8-18.38c4.39-12.36,7.86-25,11.09-37.7,1.44-5.71,2.82-11.44,4.25-17.28h25.39q-6,75.3-11.93,150.63Z"/></g></svg>